<mxfile host="app.diagrams.net" agent="Mozilla/5.0 (Windows NT 10.0; Win64; x64) AppleWebKit/537.36 (KHTML, like Gecko) Chrome/133.0.0.0 Safari/537.36" version="26.1.0">
  <diagram name="第 1 页" id="xzWil07ptTMbx-Ks7MMr">
    <mxGraphModel dx="983" dy="-747" grid="1" gridSize="10" guides="1" tooltips="1" connect="1" arrows="1" fold="1" page="1" pageScale="1" pageWidth="827" pageHeight="1169" math="0" shadow="0">
      <root>
        <mxCell id="0" />
        <mxCell id="1" parent="0" />
        <mxCell id="xNIkHBw2_Q7b0VtHXSEp-1" value="进入数据库管理分栏" style="rounded=0;arcSize=20;strokeWidth=2;labelBackgroundColor=none;fillColor=#B2C9AB;strokeColor=#788AA3;fontColor=#46495D;" vertex="1" parent="1">
          <mxGeometry x="221" y="1284" width="149" height="36" as="geometry" />
        </mxCell>
        <mxCell id="xNIkHBw2_Q7b0VtHXSEp-2" value="进入查看表结构页面" style="rounded=0;arcSize=20;strokeWidth=2;labelBackgroundColor=none;fillColor=#B2C9AB;strokeColor=#788AA3;fontColor=#46495D;" vertex="1" parent="1">
          <mxGeometry x="221" y="1350" width="149" height="32" as="geometry" />
        </mxCell>
        <mxCell id="xNIkHBw2_Q7b0VtHXSEp-3" value="是否选择数据库?" style="rhombus;strokeWidth=2;whiteSpace=wrap;labelBackgroundColor=none;fillColor=#B2C9AB;strokeColor=#788AA3;fontColor=#46495D;" vertex="1" parent="1">
          <mxGeometry x="236.5" y="1400" width="118" height="68" as="geometry" />
        </mxCell>
        <mxCell id="xNIkHBw2_Q7b0VtHXSEp-4" style="edgeStyle=orthogonalEdgeStyle;rounded=0;orthogonalLoop=1;jettySize=auto;html=1;exitX=0;exitY=0.5;exitDx=0;exitDy=0;entryX=0;entryY=0.5;entryDx=0;entryDy=0;labelBackgroundColor=none;fontColor=default;strokeColor=#788AA3;" edge="1" parent="1" source="xNIkHBw2_Q7b0VtHXSEp-5" target="xNIkHBw2_Q7b0VtHXSEp-3">
          <mxGeometry relative="1" as="geometry" />
        </mxCell>
        <mxCell id="xNIkHBw2_Q7b0VtHXSEp-5" value="提示用户选择数据库" style="whiteSpace=wrap;strokeWidth=2;labelBackgroundColor=none;fillColor=#B2C9AB;strokeColor=#788AA3;fontColor=#46495D;" vertex="1" parent="1">
          <mxGeometry x="150" y="1510" width="120" height="40" as="geometry" />
        </mxCell>
        <mxCell id="xNIkHBw2_Q7b0VtHXSEp-6" value="前端请求后端数据" style="rounded=0;arcSize=20;strokeWidth=2;labelBackgroundColor=none;fillColor=#B2C9AB;strokeColor=#788AA3;fontColor=#46495D;" vertex="1" parent="1">
          <mxGeometry x="303" y="1510" width="127" height="44" as="geometry" />
        </mxCell>
        <mxCell id="xNIkHBw2_Q7b0VtHXSEp-7" value="后端查询数据库" style="rounded=0;arcSize=20;strokeWidth=2;labelBackgroundColor=none;fillColor=#B2C9AB;strokeColor=#788AA3;fontColor=#46495D;" vertex="1" parent="1">
          <mxGeometry x="311.5" y="1590" width="115" height="30" as="geometry" />
        </mxCell>
        <mxCell id="xNIkHBw2_Q7b0VtHXSEp-8" value="查询是否成功?" style="rhombus;strokeWidth=2;whiteSpace=wrap;labelBackgroundColor=none;fillColor=#B2C9AB;strokeColor=#788AA3;fontColor=#46495D;" vertex="1" parent="1">
          <mxGeometry x="306.5" y="1660" width="125" height="66" as="geometry" />
        </mxCell>
        <mxCell id="xNIkHBw2_Q7b0VtHXSEp-9" value="提示查询失败" style="whiteSpace=wrap;strokeWidth=2;labelBackgroundColor=none;fillColor=#B2C9AB;strokeColor=#788AA3;fontColor=#46495D;" vertex="1" parent="1">
          <mxGeometry x="236.5" y="1750" width="116" height="30" as="geometry" />
        </mxCell>
        <mxCell id="xNIkHBw2_Q7b0VtHXSEp-10" value="前端展示表结构" style="rounded=0;arcSize=20;strokeWidth=2;labelBackgroundColor=none;fillColor=#B2C9AB;strokeColor=#788AA3;fontColor=#46495D;" vertex="1" parent="1">
          <mxGeometry x="386.5" y="1750" width="104" height="30" as="geometry" />
        </mxCell>
        <mxCell id="xNIkHBw2_Q7b0VtHXSEp-11" value="" style="curved=1;startArrow=none;endArrow=block;entryX=0.5;entryY=0;rounded=0;labelBackgroundColor=none;fontColor=default;strokeColor=#788AA3;" edge="1" parent="1" target="xNIkHBw2_Q7b0VtHXSEp-1">
          <mxGeometry relative="1" as="geometry">
            <Array as="points" />
            <mxPoint x="296" y="1250" as="sourcePoint" />
          </mxGeometry>
        </mxCell>
        <mxCell id="xNIkHBw2_Q7b0VtHXSEp-12" value="" style="curved=1;startArrow=none;endArrow=block;exitX=0.5;exitY=1;entryX=0.5;entryY=0;rounded=0;labelBackgroundColor=none;fontColor=default;strokeColor=#788AA3;" edge="1" parent="1" source="xNIkHBw2_Q7b0VtHXSEp-1" target="xNIkHBw2_Q7b0VtHXSEp-2">
          <mxGeometry relative="1" as="geometry">
            <Array as="points" />
          </mxGeometry>
        </mxCell>
        <mxCell id="xNIkHBw2_Q7b0VtHXSEp-13" value="" style="curved=1;startArrow=none;endArrow=block;exitX=0.5;exitY=1;entryX=0.5;entryY=0;rounded=0;labelBackgroundColor=none;fontColor=default;strokeColor=#788AA3;" edge="1" parent="1" source="xNIkHBw2_Q7b0VtHXSEp-2" target="xNIkHBw2_Q7b0VtHXSEp-3">
          <mxGeometry relative="1" as="geometry">
            <Array as="points" />
          </mxGeometry>
        </mxCell>
        <mxCell id="xNIkHBw2_Q7b0VtHXSEp-14" value="" style="curved=1;startArrow=none;endArrow=block;exitX=0.5;exitY=1.01;entryX=0.5;entryY=0.01;rounded=0;labelBackgroundColor=none;fontColor=default;strokeColor=#788AA3;" edge="1" parent="1" source="xNIkHBw2_Q7b0VtHXSEp-6" target="xNIkHBw2_Q7b0VtHXSEp-7">
          <mxGeometry relative="1" as="geometry">
            <Array as="points" />
          </mxGeometry>
        </mxCell>
        <mxCell id="xNIkHBw2_Q7b0VtHXSEp-15" value="" style="curved=1;startArrow=none;endArrow=block;exitX=0.5;exitY=1.01;entryX=0.5;entryY=0;rounded=0;labelBackgroundColor=none;fontColor=default;strokeColor=#788AA3;" edge="1" parent="1" source="xNIkHBw2_Q7b0VtHXSEp-7" target="xNIkHBw2_Q7b0VtHXSEp-8">
          <mxGeometry relative="1" as="geometry">
            <Array as="points" />
          </mxGeometry>
        </mxCell>
        <mxCell id="xNIkHBw2_Q7b0VtHXSEp-16" value="开始" style="rounded=1;whiteSpace=wrap;html=1;labelBackgroundColor=none;fillColor=#B2C9AB;strokeColor=#788AA3;fontColor=#46495D;" vertex="1" parent="1">
          <mxGeometry x="245.5" y="1220" width="100" height="31" as="geometry" />
        </mxCell>
        <mxCell id="xNIkHBw2_Q7b0VtHXSEp-17" value="结束" style="rounded=1;whiteSpace=wrap;html=1;labelBackgroundColor=none;fillColor=#B2C9AB;strokeColor=#788AA3;fontColor=#46495D;" vertex="1" parent="1">
          <mxGeometry x="345.5" y="1840" width="108" height="40" as="geometry" />
        </mxCell>
        <mxCell id="xNIkHBw2_Q7b0VtHXSEp-18" value="" style="endArrow=classic;html=1;rounded=0;strokeColor=#788AA3;fontColor=#46495D;fillColor=#B2C9AB;exitX=1;exitY=1;exitDx=0;exitDy=0;entryX=0.5;entryY=0;entryDx=0;entryDy=0;" edge="1" parent="1" source="xNIkHBw2_Q7b0VtHXSEp-8" target="xNIkHBw2_Q7b0VtHXSEp-10">
          <mxGeometry width="50" height="50" relative="1" as="geometry">
            <mxPoint x="560" y="1710" as="sourcePoint" />
            <mxPoint x="530" y="1760" as="targetPoint" />
          </mxGeometry>
        </mxCell>
        <mxCell id="xNIkHBw2_Q7b0VtHXSEp-19" value="" style="endArrow=classic;html=1;rounded=0;strokeColor=#788AA3;fontColor=#46495D;fillColor=#B2C9AB;exitX=0;exitY=1;exitDx=0;exitDy=0;" edge="1" parent="1" source="xNIkHBw2_Q7b0VtHXSEp-3">
          <mxGeometry width="50" height="50" relative="1" as="geometry">
            <mxPoint x="270" y="1460" as="sourcePoint" />
            <mxPoint x="240" y="1510" as="targetPoint" />
          </mxGeometry>
        </mxCell>
        <mxCell id="xNIkHBw2_Q7b0VtHXSEp-20" value="" style="endArrow=classic;html=1;rounded=0;strokeColor=#788AA3;fontColor=#46495D;fillColor=#B2C9AB;exitX=1;exitY=1;exitDx=0;exitDy=0;entryX=0.25;entryY=0;entryDx=0;entryDy=0;" edge="1" parent="1" source="xNIkHBw2_Q7b0VtHXSEp-3" target="xNIkHBw2_Q7b0VtHXSEp-6">
          <mxGeometry width="50" height="50" relative="1" as="geometry">
            <mxPoint x="280" y="1470" as="sourcePoint" />
            <mxPoint x="250" y="1520" as="targetPoint" />
          </mxGeometry>
        </mxCell>
        <mxCell id="xNIkHBw2_Q7b0VtHXSEp-21" value="" style="endArrow=classic;html=1;rounded=0;strokeColor=#788AA3;fontColor=#46495D;fillColor=#B2C9AB;exitX=0;exitY=1;exitDx=0;exitDy=0;entryX=0.75;entryY=0;entryDx=0;entryDy=0;" edge="1" parent="1" source="xNIkHBw2_Q7b0VtHXSEp-8" target="xNIkHBw2_Q7b0VtHXSEp-9">
          <mxGeometry width="50" height="50" relative="1" as="geometry">
            <mxPoint x="570" y="1720" as="sourcePoint" />
            <mxPoint x="540" y="1770" as="targetPoint" />
          </mxGeometry>
        </mxCell>
        <mxCell id="xNIkHBw2_Q7b0VtHXSEp-22" value="" style="endArrow=classic;html=1;rounded=0;strokeColor=#788AA3;fontColor=#46495D;fillColor=#B2C9AB;exitX=0.5;exitY=1;exitDx=0;exitDy=0;entryX=0.867;entryY=-0.018;entryDx=0;entryDy=0;entryPerimeter=0;" edge="1" parent="1" source="xNIkHBw2_Q7b0VtHXSEp-10" target="xNIkHBw2_Q7b0VtHXSEp-17">
          <mxGeometry width="50" height="50" relative="1" as="geometry">
            <mxPoint x="580" y="1730" as="sourcePoint" />
            <mxPoint x="550" y="1780" as="targetPoint" />
          </mxGeometry>
        </mxCell>
        <mxCell id="xNIkHBw2_Q7b0VtHXSEp-23" value="" style="endArrow=classic;html=1;rounded=0;strokeColor=#788AA3;fontColor=#46495D;fillColor=#B2C9AB;exitX=0.75;exitY=1;exitDx=0;exitDy=0;entryX=0.25;entryY=0;entryDx=0;entryDy=0;" edge="1" parent="1" source="xNIkHBw2_Q7b0VtHXSEp-9" target="xNIkHBw2_Q7b0VtHXSEp-17">
          <mxGeometry width="50" height="50" relative="1" as="geometry">
            <mxPoint x="600" y="1750" as="sourcePoint" />
            <mxPoint x="570" y="1800" as="targetPoint" />
          </mxGeometry>
        </mxCell>
        <mxCell id="xNIkHBw2_Q7b0VtHXSEp-24" value="否" style="text;html=1;align=center;verticalAlign=middle;resizable=0;points=[];autosize=1;strokeColor=none;fillColor=none;fontColor=#46495D;" vertex="1" parent="1">
          <mxGeometry x="230" y="1458" width="40" height="30" as="geometry" />
        </mxCell>
        <mxCell id="xNIkHBw2_Q7b0VtHXSEp-25" value="是" style="text;html=1;align=center;verticalAlign=middle;resizable=0;points=[];autosize=1;strokeColor=none;fillColor=none;fontColor=#46495D;" vertex="1" parent="1">
          <mxGeometry x="320" y="1458" width="40" height="30" as="geometry" />
        </mxCell>
      </root>
    </mxGraphModel>
  </diagram>
</mxfile>
